<?xml version="1.0" standalone="no"?>
<!DOCTYPE svg PUBLIC "-//W3C//DTD SVG 20010904//EN"
 "http://www.w3.org/TR/2001/REC-SVG-20010904/DTD/svg10.dtd">
<svg version="1.0" xmlns="http://www.w3.org/2000/svg"
 width="1536.000000pt" height="1536.000000pt" viewBox="0 0 1536.000000 1536.000000"
 preserveAspectRatio="xMidYMid meet">
<g transform="translate(0.000000,1536.000000) scale(0.100000,-0.100000)"
fill="#000000" stroke="none">
<path d="M12684 13763 c-21 -26 -45 -55 -54 -64 -8 -9 -33 -38 -55 -65 -22
-26 -81 -96 -130 -154 -50 -58 -101 -118 -114 -135 -12 -16 -37 -46 -54 -65
-40 -45 -105 -121 -242 -285 -60 -71 -111 -132 -114 -135 -7 -6 -81 -93 -190
-224 -45 -54 -87 -104 -94 -110 -7 -7 -30 -34 -52 -61 -22 -26 -83 -98 -135
-160 -52 -62 -113 -134 -135 -160 -22 -27 -45 -53 -50 -59 -6 -6 -30 -36 -55
-66 -25 -30 -47 -57 -50 -60 -13 -12 -128 -148 -146 -171 -10 -14 -42 -52 -70
-85 -29 -32 -95 -108 -147 -169 -52 -60 -243 -257 -424 -436 l-328 -327 -118
-7 c-66 -3 -137 -13 -159 -21 -22 -8 -50 -14 -62 -14 -11 0 -34 -7 -50 -15
-15 -8 -35 -15 -43 -15 -13 0 -195 -86 -238 -113 -59 -37 -189 -139 -249 -196
-178 -170 -336 -434 -376 -626 -5 -22 -13 -52 -18 -66 -8 -20 -19 -146 -22
-254 0 -5 -1020 -1030 -2267 -2277 -1517 -1517 -2275 -2268 -2288 -2268 -11 0
-47 14 -80 31 -64 33 -102 47 -205 80 -36 12 -82 27 -103 35 -20 8 -50 14 -65
14 -15 0 -49 8 -77 17 -77 25 -528 25 -640 -1 -132 -29 -198 -47 -233 -62 -18
-8 -40 -14 -48 -14 -9 0 -28 -6 -42 -13 -15 -8 -43 -21 -62 -30 -125 -55 -304
-157 -330 -187 -3 -3 -33 -27 -67 -53 -34 -26 -100 -84 -146 -130 -159 -154
-250 -283 -347 -487 -23 -47 -47 -98 -55 -113 -8 -16 -15 -35 -15 -42 0 -8 -6
-29 -14 -47 -13 -31 -28 -81 -57 -188 -29 -111 -51 -384 -40 -492 6 -51 13
-120 16 -153 3 -33 12 -86 20 -117 41 -160 48 -185 61 -210 8 -14 14 -33 14
-42 0 -9 19 -55 41 -103 23 -49 45 -97 50 -108 5 -11 18 -33 29 -50 11 -16 24
-39 30 -50 101 -190 415 -504 595 -595 11 -6 34 -19 50 -30 17 -11 37 -23 45
-26 8 -4 56 -26 107 -50 50 -24 99 -44 107 -44 8 0 30 -6 48 -14 31 -13 86
-30 188 -57 47 -12 117 -22 287 -39 99 -10 153 -7 378 20 84 10 240 49 303 76
18 8 39 14 47 14 7 0 26 6 42 14 15 7 46 21 68 31 22 9 47 21 55 26 8 4 38 20
65 34 196 103 407 280 540 455 27 36 52 67 55 70 11 10 50 70 50 76 0 4 6 15
14 23 21 25 87 148 118 221 8 19 21 51 30 70 23 54 39 102 47 140 4 19 13 51
19 70 39 126 46 194 46 440 0 199 -3 257 -17 308 -9 35 -17 73 -17 85 0 12 -6
39 -14 62 -7 22 -21 65 -31 95 -22 72 -41 120 -81 206 -19 39 -34 80 -34 90 0
20 4508 4534 4545 4551 11 5 64 11 117 12 53 1 112 7 130 13 18 5 51 14 73 18
173 34 417 176 594 345 172 165 332 431 371 620 5 22 13 51 18 65 5 14 13 79
17 145 l7 120 376 375 c208 206 388 384 402 396 14 11 48 38 75 60 56 44 100
81 124 105 20 19 242 206 285 239 18 14 39 32 48 40 8 8 37 34 64 56 27 23
101 85 164 139 63 53 131 111 150 127 48 41 106 90 236 199 60 52 132 112 159
134 26 22 53 45 59 50 6 6 80 69 165 140 84 72 161 137 171 145 9 8 39 33 65
55 90 76 270 228 306 259 20 17 58 49 84 71 27 22 62 52 79 67 l31 26 -530
529 c-291 291 -537 534 -547 541 -14 11 -21 6 -54 -35z m-9120 -9295 c63 -18
111 -52 147 -105 32 -46 33 -52 33 -138 1 -80 -2 -94 -26 -130 -28 -43 -56
-71 -103 -100 -23 -15 -49 -19 -115 -19 -78 0 -89 2 -129 29 -63 43 -100 93
-117 160 -48 184 128 356 310 303z m-907 -181 c64 -15 131 -68 163 -129 18
-34 22 -59 22 -120 0 -69 -3 -81 -32 -126 -18 -26 -55 -64 -83 -83 -47 -32
-54 -34 -137 -34 -70 0 -92 4 -107 18 -11 9 -24 17 -31 17 -19 0 -81 81 -96
128 -34 98 -14 183 60 258 36 37 65 56 100 67 61 19 76 19 141 4z m1708 -577
c86 -59 129 -165 106 -262 -35 -144 -165 -226 -305 -194 -66 16 -118 53 -161
117 -26 39 -29 51 -30 129 0 78 2 88 30 129 37 55 93 101 137 112 18 4 65 7
105 4 61 -3 79 -8 118 -35z m-918 -173 c41 -26 68 -55 98 -102 15 -23 20 -49
20 -116 0 -76 -3 -90 -27 -126 -64 -97 -186 -151 -274 -123 -70 23 -106 44
-140 84 -76 88 -79 231 -7 315 70 82 118 103 225 96 48 -3 77 -10 105 -28z
m-913 -177 c47 -28 85 -69 108 -113 28 -55 27 -170 -3 -226 -30 -58 -92 -107
-158 -127 -48 -14 -65 -15 -116 -4 -33 6 -67 18 -76 26 -8 8 -20 14 -25 14
-15 0 -51 43 -75 90 -28 53 -36 138 -18 193 25 80 106 159 175 170 57 10 155
-2 188 -23z m1621 -538 c74 -41 116 -97 135 -182 18 -84 -6 -158 -75 -225 -74
-72 -154 -91 -252 -62 -44 13 -133 79 -133 99 0 6 -8 20 -17 30 -13 15 -17 39
-17 107 -1 84 1 91 32 137 42 61 103 106 157 115 54 9 133 0 170 -19z m-907
-181 c44 -23 84 -61 115 -110 32 -52 31 -177 -2 -238 -47 -87 -138 -137 -236
-131 -120 7 -205 78 -235 194 -27 106 29 229 130 284 49 27 176 27 228 1z"/>
</g>
</svg>
