<?xml version="1.0" standalone="no"?>
<!DOCTYPE svg PUBLIC "-//W3C//DTD SVG 20010904//EN"
 "http://www.w3.org/TR/2001/REC-SVG-20010904/DTD/svg10.dtd">
<svg version="1.0" xmlns="http://www.w3.org/2000/svg"
 width="512.000000pt" height="512.000000pt" viewBox="0 0 512.000000 512.000000"
 preserveAspectRatio="xMidYMid meet">
<g transform="translate(0.000000,512.000000) scale(0.100000,-0.100000)"
fill="#000000" stroke="none">
<path d="M3625 5106 c-16 -8 -208 -192 -425 -410 l-395 -396 210 0 210 0 260
260 260 260 550 0 c513 0 553 1 585 18 38 20 80 89 80 132 0 43 -42 112 -80
132 -32 17 -73 18 -630 18 -480 -1 -601 -3 -625 -14z"/>
<path d="M1214 3989 c-177 -23 -335 -154 -386 -323 -17 -55 -22 -98 -22 -191
l-1 -120 1433 -3 1434 -2 -4 147 c-3 147 -3 149 -40 226 -71 148 -206 246
-368 267 -90 11 -1957 11 -2046 -1z"/>
<path d="M594 2938 c-313 -527 -464 -1051 -426 -1471 21 -228 63 -379 163
-582 133 -271 349 -504 612 -661 166 -98 373 -173 567 -205 66 -11 227 -14
735 -14 731 0 737 0 970 76 535 173 944 624 1065 1176 74 336 33 705 -124
1128 -50 132 -187 412 -272 553 l-67 112 -1578 0 -1578 0 -67 -112z"/>
</g>
</svg>
