<?xml version="1.0" standalone="no"?>
<!DOCTYPE svg PUBLIC "-//W3C//DTD SVG 20010904//EN"
 "http://www.w3.org/TR/2001/REC-SVG-20010904/DTD/svg10.dtd">
<svg version="1.0" xmlns="http://www.w3.org/2000/svg"
 width="1536.000000pt" height="1536.000000pt" viewBox="0 0 1536.000000 1536.000000"
 preserveAspectRatio="xMidYMid meet">
<g transform="translate(0.000000,1536.000000) scale(0.100000,-0.100000)"
fill="#000000" stroke="none">
<path d="M10940 15345 c0 -8 -12 -17 -27 -20 -40 -8 -92 -35 -136 -68 -20 -16
-768 -760 -1661 -1653 l-1624 -1624 -1834 0 c-1463 -1 -1862 -3 -1979 -14 -80
-8 -155 -19 -167 -25 -11 -6 -30 -11 -42 -11 -19 0 -83 -20 -170 -53 -55 -21
-171 -78 -215 -106 -142 -91 -293 -223 -370 -326 -21 -27 -41 -52 -45 -55 -11
-7 -130 -208 -130 -219 0 -5 -6 -22 -14 -38 -8 -15 -22 -48 -31 -73 -9 -25
-23 -60 -31 -78 -8 -18 -14 -43 -14 -57 0 -13 -5 -36 -11 -52 -24 -61 -32
-188 -38 -653 l-6 -485 -77 -102 c-43 -56 -78 -107 -78 -112 0 -6 -6 -14 -12
-18 -7 -4 -17 -15 -23 -24 -5 -9 -59 -90 -120 -180 -60 -90 -114 -171 -120
-181 -11 -18 -119 -191 -147 -236 -10 -15 -22 -36 -28 -47 -6 -11 -19 -33 -30
-50 -11 -16 -23 -37 -27 -45 -4 -8 -26 -46 -48 -85 -40 -66 -68 -118 -134
-237 -15 -29 -43 -80 -61 -113 -60 -108 -257 -507 -315 -640 -8 -16 -27 -59
-44 -95 -17 -36 -31 -71 -31 -77 0 -6 -6 -24 -14 -40 -8 -15 -21 -45 -30 -65
-9 -21 -22 -53 -30 -70 -7 -18 -28 -69 -46 -113 -17 -44 -38 -95 -46 -113 -8
-18 -14 -40 -14 -50 0 -9 -7 -26 -15 -36 -8 -11 -15 -28 -15 -38 0 -9 -6 -32
-14 -50 -23 -53 -42 -109 -61 -173 -9 -33 -23 -76 -30 -95 -7 -19 -20 -62 -30
-95 -9 -33 -21 -73 -27 -90 -5 -16 -13 -46 -17 -65 -4 -19 -13 -51 -19 -70 -6
-19 -17 -62 -25 -95 -8 -33 -20 -80 -27 -105 -6 -25 -15 -65 -19 -90 -5 -25
-13 -65 -19 -90 -18 -76 -41 -193 -46 -235 -3 -22 -9 -65 -15 -95 -17 -93 -33
-220 -41 -340 -5 -63 -14 -167 -19 -230 -13 -144 -13 -392 0 -530 5 -58 14
-161 19 -230 5 -69 14 -143 19 -165 6 -22 11 -58 11 -80 0 -22 7 -62 15 -89 8
-27 15 -65 15 -84 0 -19 6 -58 14 -86 25 -90 37 -140 46 -186 4 -25 12 -58 18
-75 6 -16 18 -57 27 -90 19 -69 23 -82 71 -225 20 -58 41 -118 49 -135 7 -16
21 -50 30 -75 31 -82 73 -176 158 -350 39 -79 89 -176 112 -215 23 -38 44 -77
48 -85 4 -8 15 -27 25 -42 33 -51 107 -169 117 -187 8 -14 100 -142 164 -228
38 -51 141 -180 163 -203 13 -14 48 -55 78 -90 72 -86 318 -331 400 -400 35
-30 80 -69 100 -87 19 -17 58 -48 85 -69 28 -21 72 -57 100 -81 27 -24 53 -43
58 -43 4 0 44 -27 87 -60 43 -33 82 -60 85 -60 4 0 24 -12 44 -27 40 -31 67
-48 96 -63 11 -6 34 -19 50 -30 17 -11 39 -24 50 -30 11 -6 47 -26 80 -45 109
-63 505 -255 526 -255 6 0 23 -6 37 -14 49 -25 184 -75 322 -117 36 -11 79
-25 95 -30 17 -6 46 -15 65 -19 50 -13 117 -30 175 -45 114 -30 153 -38 210
-45 33 -4 80 -13 105 -18 62 -15 178 -33 285 -44 53 -6 820 -12 1885 -15 1828
-5 1961 -3 2171 33 48 7 100 14 115 14 28 0 126 18 224 42 25 6 59 13 75 15
17 2 53 10 80 18 28 7 75 20 105 28 98 27 174 49 210 62 19 7 51 18 70 24 19
7 49 16 65 21 17 5 55 18 85 30 30 12 67 25 81 30 14 4 34 12 45 18 10 6 44
20 74 32 62 25 217 97 240 111 8 5 22 12 30 15 8 3 22 9 30 14 8 5 38 21 65
34 28 14 77 41 110 61 33 19 69 39 80 45 11 6 32 18 47 28 15 9 57 36 95 60
37 23 77 48 88 55 10 6 100 72 200 146 215 160 350 275 520 446 141 141 213
220 355 391 51 61 232 308 266 362 21 35 46 73 54 86 13 20 90 148 127 211 11
20 72 135 118 225 51 100 126 269 160 360 9 25 22 59 29 75 17 39 36 95 43
120 3 11 11 34 18 50 17 40 37 102 46 145 4 19 12 49 17 65 19 57 59 210 72
280 5 22 13 67 20 100 60 309 76 458 86 835 13 465 -50 1000 -176 1490 -6 25
-13 56 -16 70 -3 14 -12 49 -20 77 -32 114 -48 170 -59 208 -7 22 -21 67 -30
100 -10 33 -23 76 -30 95 -7 19 -18 51 -24 70 -7 19 -16 49 -21 65 -5 17 -18
55 -30 85 -12 30 -25 66 -30 80 -4 14 -12 36 -18 50 -5 14 -17 43 -25 65 -17
47 -73 186 -93 233 -8 17 -21 48 -29 67 -40 96 -65 154 -105 240 -80 173 -97
207 -157 330 -63 127 -73 147 -93 183 -5 9 -21 40 -35 67 -14 28 -48 91 -75
140 -27 50 -53 97 -57 105 -4 8 -25 47 -48 85 -22 39 -44 77 -48 85 -4 8 -16
29 -27 45 -11 17 -24 39 -29 50 -5 11 -20 36 -33 55 -13 19 -27 42 -31 50 -4
8 -16 29 -27 45 -11 17 -23 37 -27 45 -4 8 -19 33 -34 55 -68 104 -145 222
-154 237 -19 33 -150 223 -191 278 -22 30 -66 91 -96 136 l-56 81 -5 514 c-3
363 -8 524 -16 549 -7 19 -16 55 -20 80 -14 73 -49 167 -109 290 -99 202 -228
360 -412 499 -41 32 -82 61 -90 64 -8 4 -28 16 -45 26 -52 34 -238 121 -257
121 -7 0 -30 6 -53 14 -151 52 -326 66 -825 66 -214 0 -391 4 -394 9 -3 4 546
560 1221 1235 l1226 1226 1622 0 c1758 0 1655 -3 1772 51 60 28 138 102 176
168 34 57 67 173 67 232 0 43 -27 155 -48 199 -52 108 -165 204 -264 225 -16
3 -28 12 -28 20 0 13 -216 15 -1795 15 -1579 0 -1795 -2 -1795 -15z m-1265
-4279 c86 -16 149 -36 167 -54 7 -7 18 -12 25 -12 7 0 46 -33 87 -72 56 -56
82 -92 112 -153 l38 -80 4 -314 c2 -178 0 -317 -5 -322 -10 -10 -6778 -13
-6794 -3 -15 9 -11 529 5 604 28 137 100 248 205 319 78 53 123 72 211 86 118
20 5834 20 5945 1z m680 -1950 c17 -19 49 -60 70 -92 21 -33 57 -84 80 -114
23 -30 44 -59 46 -65 2 -5 35 -57 73 -115 38 -58 84 -127 101 -155 43 -66 245
-405 245 -411 0 -2 10 -21 23 -42 51 -81 163 -292 277 -522 86 -172 102 -206
155 -325 39 -88 46 -104 99 -227 20 -49 76 -188 92 -230 34 -91 47 -125 60
-156 8 -18 14 -40 14 -48 0 -9 6 -28 14 -42 18 -36 36 -90 45 -133 4 -19 11
-42 16 -49 5 -7 12 -30 16 -49 8 -38 23 -85 45 -139 8 -18 14 -45 14 -60 1
-15 7 -38 15 -52 8 -14 14 -37 15 -51 0 -14 6 -45 14 -70 7 -24 21 -80 31
-124 9 -44 23 -107 30 -140 8 -33 16 -78 19 -100 2 -22 9 -65 15 -95 53 -278
75 -729 51 -1020 -12 -143 -37 -334 -52 -400 -5 -25 -13 -67 -18 -95 -12 -80
-78 -334 -103 -395 -5 -14 -13 -38 -17 -55 -9 -35 -28 -87 -46 -130 -7 -16
-20 -50 -29 -75 -31 -81 -183 -398 -215 -450 -5 -8 -33 -55 -62 -104 -29 -49
-61 -101 -70 -115 -10 -14 -21 -33 -25 -41 -7 -15 -211 -290 -222 -300 -4 -3
-26 -30 -51 -60 -108 -133 -341 -364 -485 -480 -44 -36 -93 -77 -110 -92 -16
-16 -35 -28 -40 -28 -6 0 -21 -10 -35 -22 -33 -30 -87 -68 -185 -131 -113 -73
-118 -76 -140 -87 -11 -6 -42 -24 -70 -40 -27 -17 -77 -44 -110 -61 -33 -16
-67 -34 -75 -39 -14 -8 -114 -54 -185 -85 -88 -38 -187 -77 -245 -95 -36 -11
-74 -25 -85 -30 -11 -4 -31 -11 -45 -13 -14 -3 -38 -10 -55 -15 -16 -6 -55
-17 -85 -26 -30 -8 -80 -22 -111 -30 -31 -9 -64 -16 -75 -16 -10 0 -48 -6 -84
-15 -99 -22 -239 -43 -410 -60 -235 -24 -3339 -23 -3570 0 -220 23 -413 54
-535 87 -22 6 -58 15 -80 19 -53 10 -122 29 -165 44 -19 7 -64 22 -100 33 -36
12 -90 30 -120 42 -30 12 -66 25 -80 30 -113 39 -388 171 -500 239 -19 11 -44
25 -55 31 -11 6 -32 18 -46 28 -15 9 -53 33 -85 53 -50 30 -191 130 -244 172
-8 7 -44 34 -80 62 -36 27 -85 67 -110 89 -57 51 -352 346 -406 406 -42 46
-284 365 -284 374 0 2 -19 33 -42 68 -48 70 -62 93 -77 123 -6 11 -26 47 -45
80 -60 105 -196 385 -196 404 0 5 -6 22 -14 38 -8 15 -21 46 -29 68 -8 22 -21
58 -29 80 -33 90 -59 170 -78 245 -5 19 -14 55 -20 80 -105 410 -151 872 -120
1215 7 77 16 181 20 230 9 111 27 240 46 322 8 34 14 72 14 85 0 24 22 128 46
214 8 28 14 59 14 70 0 10 6 39 14 64 8 25 21 71 30 103 38 139 48 174 58 202
5 17 13 44 18 60 5 17 13 44 19 60 6 17 19 57 30 90 11 33 30 85 41 115 12 30
25 70 30 89 5 18 13 38 19 44 6 6 11 20 11 32 0 12 7 30 15 41 8 10 15 27 15
36 0 9 6 29 14 45 7 15 21 46 31 68 9 22 23 53 31 68 8 16 14 33 14 38 0 5 14
39 31 76 17 38 37 82 44 98 87 195 278 577 378 755 7 14 27 49 43 78 16 29 34
61 39 70 16 28 198 331 215 357 44 69 102 162 113 180 7 11 24 36 40 56 15 20
27 40 27 44 0 4 14 24 30 45 17 21 30 41 30 44 0 3 19 33 43 65 23 33 60 85
82 116 22 32 49 61 60 66 11 4 1644 8 3629 8 l3609 1 32 -34z"/>
</g>
</svg>
